HIERARCHY
ROOT Hips
{
	OFFSET	0.000000	0.000000	0.000000
	CHANNELS 6 Xposition Yposition Zposition Zrotation Xrotation Yrotation
	JOINT LeftUpLeg
	{
		OFFSET	12.830505	-7.049846	-1.643436
		CHANNELS 3 Zrotation Xrotation Yrotation
		JOINT LeftLeg
		{
			OFFSET	0.620834	-39.957500	-1.919341
			CHANNELS 3 Zrotation Xrotation Yrotation
			JOINT LeftFoot
			{
				OFFSET	-0.413890	-44.704761	-3.870325
				CHANNELS 3 Zrotation Xrotation Yrotation
				JOINT LeftFootHeel
				{
					OFFSET	0.164738	-8.918193	-6.555130
					CHANNELS 3 Zrotation Xrotation Yrotation
					End Site
					{
						OFFSET	-0.604053	0.000000	21.044330
					}
				}
			}
		}
	}
	JOINT RightUpLeg
	{
		OFFSET	-12.830505	-7.049846	-1.643436
		CHANNELS 3 Zrotation Xrotation Yrotation
		JOINT RightLeg
		{
			OFFSET	-0.620834	-39.957500	-1.919341
			CHANNELS 3 Zrotation Xrotation Yrotation
			JOINT RightFoot
			{
				OFFSET	0.413890	-44.704761	-3.870325
				CHANNELS 3 Zrotation Xrotation Yrotation
				JOINT RightFootHeel
				{
					OFFSET	-0.164738	-8.918193	-6.555130
					CHANNELS 3 Zrotation Xrotation Yrotation
					End Site
					{
						OFFSET	0.604053	0.000000	21.044330
					}
				}
			}
		}
	}
	JOINT Spine
	{
		OFFSET	0.000000	12.498170	1.820647
		CHANNELS 3 Zrotation Xrotation Yrotation
		JOINT Spine1
		{
			OFFSET	0.000000	7.620000	0.000000
			CHANNELS 3 Zrotation Xrotation Yrotation
			JOINT LeftShoulder
			{
				OFFSET	9.167800	29.136339	-5.551221
				CHANNELS 3 Zrotation Xrotation Yrotation
				JOINT LeftArm
				{
					OFFSET	12.133453	-3.880866	1.461963
					CHANNELS 3 Zrotation Xrotation Yrotation
					JOINT LeftForeArm
					{
						OFFSET	2.507115	-31.664908	-1.069404
						CHANNELS 3 Zrotation Xrotation Yrotation
						JOINT LeftHand
						{
							OFFSET	4.116172	-24.512624	5.009439
							CHANNELS 3 Zrotation Xrotation Yrotation
							End Site
							{
								OFFSET	-0.213136	-10.931856	2.182134
							}
						}
					}
				}
			}
			JOINT RightShoulder
			{
				OFFSET	-9.167800	29.136339	-5.551221
				CHANNELS 3 Zrotation Xrotation Yrotation
				JOINT RightArm
				{
					OFFSET	-12.133453	-3.880866	1.461963
					CHANNELS 3 Zrotation Xrotation Yrotation
					JOINT RightForeArm
					{
						OFFSET	-2.507115	-31.664908	-1.069404
						CHANNELS 3 Zrotation Xrotation Yrotation
						JOINT RightHand
						{
							OFFSET	-4.116172	-24.512624	5.009439
							CHANNELS 3 Zrotation Xrotation Yrotation
							End Site
							{
								OFFSET	0.213136	-10.931856	2.182134
							}
						}
					}
				}
			}
			JOINT Neck
			{
				OFFSET	0.000000	32.926272	-3.635654
				CHANNELS 3 Zrotation Xrotation Yrotation
				JOINT Head
				{
					OFFSET	0.000000	12.481178	4.646143
					CHANNELS 3 Zrotation Xrotation Yrotation
					End Site
					{
						OFFSET	0.000000	17.715204	-2.222063
					}
				}
			}
		}
	}
}
MOTION
Frames:     14
Frame Time: 0.016667
0.000000	100.541139	0.000000	6.163577	3.470735	-43.901852	8.135730	-23.827772	15.138227	2.024916	22.294771	1.425205	-6.237906	-1.880442	-0.711026	0.	0.	0.	-16.749365	-16.948679	-8.823637	3.045078	20.872717	0.559690	8.501453	-7.409223	8.679168	0.	0.	0.	0.000000	0.000001	0.000007	3.025137	14.433214	1.568331	5.698895	-9.219259	2.891042	2.289910	-11.120432	0.620756	61.422443	-132.131332	62.556774	-21.976128	0.353589	1.124460	-1.966207	-5.034499	-6.047264	-15.610157	-17.547333	-0.340083	-71.783211	-124.728134	-74.246605	-5.932259	-8.539318	17.981741	-2.372964	7.558601	12.640645	-6.641273	1.844619	3.143123	
0.013061	100.543018	-0.014368	6.166466	3.470876	-43.871922	8.121346	-23.829197	15.131837	2.035890	22.311199	1.416531	-6.241374	-1.900028	-0.733028	0.	0.	0.	-16.759583	-16.951647	-8.805552	3.068831	20.871569	0.542015	8.489833	-7.406816	8.640650	0.	0.	0.	-0.000001	0.000001	-0.000001	3.031928	14.428652	1.543175	5.686710	-9.214282	2.903765	2.286734	-11.125150	0.597360	61.415703	-132.119659	62.556705	-21.969231	0.380642	1.090009	-1.969197	-5.021163	-6.047927	-15.550058	-17.583414	-0.320608	-71.871178	-124.710350	-74.283775	-5.938372	-8.537452	17.979059	-2.360074	7.551831	12.667472	-6.678094	1.865088	3.132638	
0.014440	100.541565	-0.010496	6.168076	3.470955	-43.855267	8.112993	-23.832722	15.113882	2.046602	22.325115	1.429830	-6.252250	-1.911722	-0.751792	0.	0.	0.	-16.764359	-16.948257	-8.789805	3.076434	20.876905	0.530725	8.490287	-7.416999	8.619535	0.	0.	0.	-0.000000	0.000000	-0.000008	3.035112	14.426594	1.525964	5.705772	-9.214134	2.923612	2.240742	-11.121574	0.573097	61.427792	-132.120728	62.580879	-21.974199	0.382693	1.107800	-1.970683	-5.013492	-6.025641	-15.513370	-17.591116	-0.326259	-71.912178	-124.705078	-74.305740	-5.956054	-8.530389	17.990257	-2.376920	7.532264	12.711148	-6.692280	1.888365	3.092621	
0.014362	100.541565	-0.010199	6.168076	3.470955	-43.855267	8.112993	-23.832722	15.113882	2.055117	22.333527	1.430940	-6.260509	-1.919417	-0.757011	0.	0.	0.	-16.763105	-16.947638	-8.761701	3.085891	20.874617	0.501128	8.490288	-7.416996	8.619534	0.	0.	0.	-0.000000	0.000000	-0.000008	3.035112	14.426594	1.525964	5.710364	-9.214098	2.928390	2.238033	-11.102487	0.571665	61.391941	-132.137177	62.581432	-21.994102	0.318398	1.117383	-1.971852	-5.005139	-5.999105	-15.487708	-17.581707	-0.341644	-71.919037	-124.709244	-74.311470	-5.952678	-8.549617	17.995609	-2.416641	7.511121	12.738894	-6.700677	1.906322	3.063444	
0.019226	100.540519	-0.014461	6.168076	3.470955	-43.855267	8.112993	-23.832722	15.113882	2.055117	22.333527	1.430940	-6.260509	-1.919417	-0.757011	0.	0.	0.	-16.762320	-16.956549	-8.716625	3.101055	20.880882	0.452694	8.490287	-7.416998	8.619537	0.	0.	0.	-0.000000	0.000000	-0.000008	3.035112	14.426594	1.525964	5.710364	-9.214098	2.928390	2.240689	-11.083231	0.574392	61.324512	-132.167816	62.525436	-21.979227	0.168753	1.126191	-1.966817	-4.988412	-5.978565	-15.471891	-17.584534	-0.355399	-71.812927	-124.734978	-74.210632	-5.954122	-8.502181	17.985157	-2.428051	7.492437	12.781389	-6.797686	1.940739	3.047924	
0.021428	100.540441	-0.016382	6.168582	3.470978	-43.849976	8.112528	-23.809801	15.124049	2.052727	22.310326	1.415645	-6.260509	-1.919418	-0.757008	0.	0.	0.	-16.764040	-16.957815	-8.709702	3.105215	20.882597	0.439431	8.490287	-7.417002	8.619542	0.	0.	0.	0.000001	0.000001	0.000002	3.037085	14.425161	1.525718	5.703528	-9.210553	2.938178	2.227453	-11.085254	0.553634	61.282623	-132.189896	62.477306	-21.954060	0.175042	1.145709	-1.968574	-4.984250	-5.982623	-15.471880	-17.587158	-0.357707	-71.763100	-124.743683	-74.176857	-5.951709	-8.498104	17.966120	-2.425973	7.492107	12.781622	-6.860084	1.956760	3.093412	
0.022445	100.539753	-0.018618	6.170342	3.471066	-43.831768	8.105759	-23.785852	15.106160	2.043338	22.284035	1.415813	-6.260508	-1.919416	-0.757005	0.	0.	0.	-16.770380	-16.957548	-8.709246	3.113358	20.891037	0.424948	8.487921	-7.423696	8.613686	0.	0.	0.	-0.000000	0.000000	0.000001	3.043931	14.420138	1.525284	5.686235	-9.206198	2.928834	2.231422	-11.089063	0.540211	61.238823	-132.209656	62.437244	-21.906301	0.119595	1.162900	-1.973428	-4.980733	-6.001807	-15.471883	-17.587151	-0.357702	-71.758400	-124.746552	-74.191826	-5.950666	-8.513382	17.968220	-2.426653	7.495771	12.762372	-6.937607	1.974024	3.158985	
0.009156	100.536178	-0.012562	6.170706	3.471084	-43.827946	8.104532	-23.776499	15.083474	2.032228	22.275070	1.436531	-6.260510	-1.919418	-0.757008	0.	0.	0.	-16.771597	-16.958776	-8.702651	3.123766	20.913851	0.437268	8.478400	-7.448615	8.590856	0.	0.	0.	0.000000	0.000000	-0.000001	3.047241	14.417562	1.535390	5.679130	-9.204776	2.915949	2.233136	-11.089984	0.537706	61.200081	-132.225952	62.405342	-21.882795	0.054554	1.176435	-1.977134	-4.978053	-6.016459	-15.471880	-17.587156	-0.357699	-71.747406	-124.750412	-74.202309	-5.948470	-8.522899	17.970345	-2.427163	7.498569	12.747672	-7.022950	1.992926	3.231182	
-0.005324	100.533203	-0.006561	6.170706	3.471084	-43.827946	8.103709	-23.782736	15.050591	2.021335	22.282045	1.471474	-6.260508	-1.919418	-0.757006	0.	0.	0.	-16.771597	-16.958776	-8.702651	3.131572	20.933321	0.457104	8.468401	-7.471152	8.571175	0.	0.	0.	0.000000	0.000000	-0.000001	3.049487	14.415715	1.547618	5.674914	-9.204143	2.902869	2.233137	-11.089985	0.537707	61.163567	-132.241318	62.375290	-21.883957	0.047606	1.189036	-1.980366	-4.975705	-6.029219	-15.471881	-17.587158	-0.357695	-71.718178	-124.757149	-74.196976	-5.945629	-8.521444	17.971441	-2.435289	7.486671	12.771989	-7.089795	2.026917	3.263333	
-0.020970	100.530054	-0.000338	6.170706	3.471084	-43.827946	8.103467	-23.784573	15.040948	2.018140	22.284098	1.481716	-6.260509	-1.919418	-0.757006	0.	0.	0.	-16.771597	-16.958776	-8.702651	3.138736	20.954281	0.462164	8.460958	-7.492948	8.566677	0.	0.	0.	0.000000	0.000000	-0.000001	3.050032	14.415265	1.550584	5.673892	-9.203991	2.899688	2.233138	-11.089985	0.537704	61.125782	-132.257263	62.344200	-21.884409	0.063234	1.167419	-1.981150	-4.975135	-6.032324	-15.451510	-17.592743	-0.348271	-71.732407	-124.756332	-74.215279	-5.943306	-8.532226	17.972679	-2.443189	7.460958	12.837264	-7.148573	2.075426	3.262318	
-0.029390	100.528504	0.002491	6.170706	3.471084	-43.827946	8.103032	-23.787870	15.023558	2.012371	22.287785	1.500191	-6.260509	-1.919415	-0.757008	0.	0.	0.	-16.771597	-16.958776	-8.702651	3.142923	20.965149	0.462192	8.456970	-7.503891	8.566766	0.	0.	0.	0.000000	0.000000	-0.000001	3.050032	14.415265	1.550584	5.673892	-9.203991	2.899688	2.240064	-11.090980	0.539768	61.100967	-132.265594	62.330116	-21.888826	0.049673	1.148419	-1.981150	-4.975135	-6.032324	-15.438522	-17.596756	-0.342229	-71.746643	-124.754623	-74.228867	-5.942478	-8.540421	17.973213	-2.434303	7.455630	12.859542	-7.188693	2.104847	3.267170	
-0.047490	100.525394	0.007802	6.170706	3.471084	-43.827946	8.102521	-23.791759	15.003067	2.013092	22.300018	1.519856	-6.267724	-1.926991	-0.758585	0.	0.	0.	-16.771597	-16.958776	-8.702651	3.152759	20.987850	0.461661	8.447654	-7.526711	8.567130	0.	0.	0.	0.000000	0.000000	-0.000001	3.050032	14.415265	1.550584	5.673892	-9.203991	2.899688	2.254560	-11.093066	0.544085	61.062519	-132.277359	62.311764	-21.825523	0.019706	1.144839	-1.981150	-4.975135	-6.032324	-15.414508	-17.605303	-0.330976	-71.751366	-124.759293	-74.231094	-5.946029	-8.542665	17.967957	-2.427404	7.451495	12.876842	-7.260962	2.186230	3.301018	
-0.085734	100.517720	0.022760	6.170706	3.471084	-43.827946	8.102336	-23.793140	14.995858	2.027666	22.322395	1.502035	-6.283393	-1.949371	-0.741884	0.	0.	0.	-16.771597	-16.958776	-8.702651	3.169538	21.038979	0.463317	8.431564	-7.578286	8.567030	0.	0.	0.	0.000000	0.000000	-0.000001	3.050032	14.415265	1.550584	5.673892	-9.203991	2.899688	2.264894	-11.094553	0.547168	61.013458	-132.234268	62.283070	-21.731169	0.006682	1.149014	-1.981150	-4.975135	-6.032324	-15.382202	-17.620159	-0.315636	-71.662666	-124.775902	-74.126801	-5.951237	-8.488877	17.935097	-2.464369	7.443005	12.876251	-7.339839	2.312963	3.394351	
-0.099400	100.513602	0.029081	6.170706	3.471084	-43.827946	8.102125	-23.794662	14.987801	2.030923	22.331842	1.498598	-6.288772	-1.957981	-0.733036	0.	0.	0.	-16.772106	-16.962534	-8.703546	3.174607	21.065262	0.473297	8.425321	-7.602118	8.559036	0.	0.	0.	0.000000	0.000000	-0.000001	3.050032	14.415265	1.550584	5.673892	-9.203991	2.899688	2.264894	-11.094553	0.547168	61.013458	-132.234268	62.283070	-21.682167	0.000463	1.149988	-1.981150	-4.975135	-6.032324	-15.371550	-17.625664	-0.310531	-71.650406	-124.776726	-74.108185	-5.951510	-8.481318	17.925768	-2.498068	7.444667	12.882478	-7.353328	2.353826	3.426043	
